<?xml version="1.0" encoding="iso-8859-1"?>
<!-- Generator: Adobe Illustrator 19.0.0, SVG Export Plug-In . SVG Version: 6.00 Build 0)  -->
<svg version="1.1" id="Layer_1" xmlns="http://www.w3.org/2000/svg" xmlns:xlink="http://www.w3.org/1999/xlink" x="0px" y="0px"
	 viewBox="0 0 512 512" style="enable-background:new 0 0 512 512;" xml:space="preserve">
<g transform="translate(-1)">
	<g>
		<path style="fill:#D28F1B;" d="M257,97.103c-87.755,0-158.897,71.142-158.897,158.897h133.932l124.081-124.081
			C328.927,110.177,294.517,97.103,257,97.103"/>
		<path style="fill:#D28F1B;" d="M415.897,256c0-37.517-13.074-71.927-34.816-99.116L281.964,256H415.897z"/>
	</g>
	<path style="fill:#D85B3C;" d="M257,476.69c-54.502,0-104.413-19.897-142.963-52.762l310.89-310.89
		c32.865,38.55,52.762,88.461,52.762,142.963C477.69,377.688,378.688,476.69,257,476.69 M36.31,256
		c0-121.688,99.001-220.69,220.69-220.69c54.501,0,104.413,19.897,142.963,52.762l-310.89,310.89
		C56.208,360.413,36.31,310.501,36.31,256 M257,0C115.617,0,1,114.617,1,256s114.617,256,256,256s256-114.617,256-256
		S398.383,0,257,0"/>
	<g>
		<path style="fill:#EFDFA0;" d="M212.862,158.897c0-4.873-3.955-8.828-8.828-8.828c-4.873,0-8.828,3.955-8.828,8.828
			s3.955,8.828,8.828,8.828C208.907,167.724,212.862,163.769,212.862,158.897"/>
		<path style="fill:#EFDFA0;" d="M248.172,194.207c0-4.873-3.955-8.828-8.828-8.828s-8.828,3.955-8.828,8.828
			c0,4.873,3.955,8.828,8.828,8.828S248.172,199.08,248.172,194.207"/>
		<path style="fill:#EFDFA0;" d="M283.483,158.897c0-4.873-3.955-8.828-8.828-8.828s-8.828,3.955-8.828,8.828
			s3.955,8.828,8.828,8.828S283.483,163.769,283.483,158.897"/>
		<path style="fill:#EFDFA0;" d="M380.586,220.69c0-4.873-3.955-8.828-8.828-8.828c-4.873,0-8.828,3.955-8.828,8.828
			s3.955,8.828,8.828,8.828C376.631,229.517,380.586,225.562,380.586,220.69"/>
		<path style="fill:#EFDFA0;" d="M204.034,203.034c0-4.873-3.955-8.828-8.828-8.828c-4.873,0-8.828,3.955-8.828,8.828
			c0,4.873,3.955,8.828,8.828,8.828C200.08,211.862,204.034,207.907,204.034,203.034"/>
		<path style="fill:#EFDFA0;" d="M257,132.414c0-4.873-3.955-8.828-8.828-8.828c-4.873,0-8.828,3.955-8.828,8.828
			c0,4.873,3.955,8.828,8.828,8.828C253.045,141.241,257,137.287,257,132.414"/>
		<path style="fill:#EFDFA0;" d="M159.897,194.207c0-4.873-3.955-8.828-8.828-8.828c-4.873,0-8.828,3.955-8.828,8.828
			c0,4.873,3.955,8.828,8.828,8.828C155.942,203.034,159.897,199.08,159.897,194.207"/>
	</g>
	<g>
		<path style="fill:#6A3311;" d="M106.931,256c-14.566,0-26.483,11.917-26.483,26.483s11.917,26.483,26.483,26.483h72.139
			L232.036,256H106.931z"/>
		<path style="fill:#6A3311;" d="M433.552,282.483c0-14.566-11.917-26.483-26.483-26.483H281.964l-52.966,52.966h178.07
			C421.634,308.966,433.552,297.048,433.552,282.483"/>
	</g>
	<g>
		<path style="fill:#D28F1B;" d="M195.207,406.069h123.586c53.628,0,97.103-43.476,97.103-97.103H228.999l-83.377,83.377
			C160.153,401.002,177.066,406.069,195.207,406.069"/>
		<path style="fill:#D28F1B;" d="M98.103,308.966c0,22.696,7.848,43.529,20.904,60.063l60.063-60.063H98.103z"/>
	</g>
</g>
<g>
</g>
<g>
</g>
<g>
</g>
<g>
</g>
<g>
</g>
<g>
</g>
<g>
</g>
<g>
</g>
<g>
</g>
<g>
</g>
<g>
</g>
<g>
</g>
<g>
</g>
<g>
</g>
<g>
</g>
</svg>
